<?xml version="1.0" encoding="UTF-8"?>
<svg width="669" height="491" viewBox="0 0 669 491" fill="none" xmlns="http://www.w3.org/2000/svg">
<path d="M558.796 153.288C558.083 153.288 557.385 153.073 556.792 152.671C556.2 152.269 555.737 151.697 555.464 151.028C555.192 150.358 555.12 149.622 555.259 148.912C555.398 148.202 555.742 147.549 556.246 147.037C556.75 146.525 557.393 146.176 558.092 146.035C558.792 145.893 559.517 145.966 560.176 146.243C560.834 146.52 561.398 146.99 561.794 147.592C562.19 148.194 562.401 148.902 562.401 149.626C562.401 150.597 562.022 151.529 561.345 152.216C560.669 152.902 559.752 153.288 558.796 153.288ZM547.5 168.098C545.233 168.096 543.042 167.262 541.333 165.749C539.623 164.237 538.51 162.147 538.198 159.867H556.785C556.474 162.145 555.363 164.232 553.657 165.744C551.951 167.256 549.764 168.092 547.5 168.098ZM532.582 149.626C532.582 148.902 532.794 148.194 533.19 147.592C533.586 146.99 534.149 146.52 534.808 146.243C535.467 145.966 536.192 145.893 536.892 146.035C537.591 146.176 538.233 146.525 538.738 147.037C539.242 147.549 539.585 148.202 539.725 148.912C539.864 149.622 539.792 150.358 539.519 151.028C539.247 151.697 538.784 152.269 538.191 152.671C537.598 153.073 536.901 153.288 536.188 153.288C535.232 153.288 534.315 152.902 533.639 152.216C532.962 151.529 532.582 150.597 532.582 149.626ZM547.5 122.081C541.662 122.081 535.955 123.84 531.102 127.136C526.249 130.431 522.468 135.115 520.238 140.594C518.007 146.073 517.428 152.101 518.573 157.915C519.717 163.729 522.535 169.067 526.669 173.254C530.802 177.44 536.066 180.287 541.794 181.434C547.521 182.581 553.455 181.976 558.844 179.696C564.233 177.416 568.835 173.564 572.067 168.626C575.299 163.689 577.016 157.888 577 151.959C577 148.025 576.237 144.129 574.754 140.494C573.272 136.86 571.099 133.557 568.36 130.775C565.62 127.993 562.368 125.786 558.789 124.281C555.21 122.775 551.374 122 547.5 122V122.081Z" fill="#90EAFF"/>
<path d="M242.745 182.657C242.745 182.657 225.996 158.131 187.866 161.39C149.737 164.666 131.212 190.289 122.483 224.078C113.769 257.866 90.8722 304.821 85.9668 316.229C85.9668 316.229 126.549 356.31 188.221 358.149C249.893 359.989 267.208 345.612 275.518 333.074C275.518 333.074 268.143 315.083 266.723 296.011C265.287 276.938 266.53 212.621 242.745 182.657Z" fill="#222D6B"/>
<path d="M207.987 289.121C207.987 289.121 207.987 324.667 234.886 324.667C234.886 324.667 189.952 361.823 152.5 322C152.5 322 179.394 320 179.394 289.121H207.987Z" fill="#FADBB9"/>
<path d="M211 305C212 310 215.264 314.841 218 317.5C218 318 217.403 319.753 216 321C214.851 322.021 201.423 315.608 200.048 314.841C196.288 312.759 192.593 309.742 189.124 305.531C185.671 301.319 182.46 295.914 179.539 291.283L179.2 290.75C179.281 290.202 179.345 289.669 179.394 289.121H201.032C203.34 290.573 205.373 292.041 207.035 293.477C209.504 295.591 211.182 297.608 212.731 299.819C213.151 300.416 210.613 304.403 211 305Z" fill="#EFCA9F"/>
<path d="M400.394 334.704C398.974 332.703 391.003 340.48 389.712 339.932C388.421 339.399 398.974 324.522 397.167 323.135C395.344 321.763 386.856 334.978 385.291 334.607C383.71 334.236 394.295 318.052 392.343 316.89C389.616 315.26 383.129 330.622 380.66 330.025C378.175 329.427 387.114 315.486 383.419 314.389C380.934 313.647 372.576 336.092 370.285 335.769C367.977 335.462 367.412 323.925 365.073 324.797C362.733 325.652 364.637 336.559 363.83 340.884C363.265 343.95 363.782 348 364.137 350.097L363.943 349.968C363.943 349.968 313.243 409.993 310.533 410.509C307.806 411.01 278.373 354.873 278.373 354.873L247.844 370.686C247.844 370.686 296.897 445.895 311.065 448.622C325.087 451.317 370.317 360.747 375.496 357.633L375.642 357.552H375.658C379.063 355.648 382.871 352.534 384.984 349.742C387.421 346.515 401.814 336.721 400.394 334.704Z" fill="#FADBB9"/>
<path d="M246.909 321.392C246.909 321.392 270.887 322.957 280.424 356.665C280.424 356.665 248.248 373.752 242.843 372.639C242.843 372.639 241.762 336.059 246.909 321.392Z" fill="#DBF4FF"/>
<path d="M131.761 325.248C137.78 322.941 157.111 315.567 166.034 313.518C166.05 313.518 200.178 347.064 221.687 312.953C234.887 315.777 242.745 317.923 246.908 321.392C241 345 260.655 366.725 259.5 386C259.113 392.438 256 400.5 246.908 409.5C226.305 453.061 241 461 253.233 480.086H125C210.5 445.5 131.761 325.248 131.761 325.248Z" fill="#5767FA"/>
<path d="M154.885 316.842C154.885 316.842 172.102 338.528 196.306 338.528C221.14 338.528 231.967 315.325 231.983 315.325C228.982 314.55 225.577 313.776 221.688 312.953C200.179 347.064 166.051 313.518 166.035 313.518L154.901 316.825L154.885 316.842Z" fill="#EBF9FF"/>
<path d="M120.82 378.69C120.82 378.69 128.259 459.481 133.406 464.967C138.554 470.47 231.982 473.648 231.982 473.648H271.289C271.289 473.648 255.702 454.076 234.886 461.159C234.886 461.159 168.761 442.619 163.339 438.811C157.917 435.003 157.385 378.077 157.385 378.077L120.82 378.69Z" fill="#FADBB9"/>
<path d="M163.34 379.303C163.34 379.303 158.112 332.558 138.071 325.394C118.046 318.229 119.418 360.569 116.626 378.173C116.626 378.173 138.281 381.417 163.34 379.303Z" fill="white"/>
<path d="M275.517 480.006H472.474L506.037 340.529H309.064L275.517 480.006Z" fill="#355690"/>
<path d="M285.231 480.006H482.189L515.752 340.529H318.778L285.231 480.006Z" fill="#8DB0F0"/>
<path d="M179.476 480.006H282.166L285.232 470.792H179.476V480.006Z" fill="#355690"/>
<path d="M383.84 413.801C383.84 422.998 391.295 430.437 400.492 430.437C409.69 430.437 417.129 422.998 417.129 413.801C417.129 404.604 409.69 397.149 400.492 397.149C391.295 397.149 383.84 404.604 383.84 413.801Z" fill="white"/>
<path d="M530.605 391.179C530.605 391.179 474.435 266.966 526.328 199.374C526.328 199.374 508.498 275.341 551.517 391.179H530.605Z" fill="#2DC9B2"/>
<path d="M526.328 199.374C474.435 266.966 530.605 391.179 530.605 391.179H539.883C539.883 391.179 487.634 283.279 526.328 199.374Z" fill="#3CE5C8"/>
<path d="M586.419 181.963C586.419 181.963 510.951 248.152 534.88 391.179H558.31C558.31 391.179 534.8 256.978 586.419 181.963Z" fill="#2DC9B2"/>
<path d="M534.88 391.179H546.95C541.98 356.003 530.378 238.745 586.419 181.963C586.419 181.963 510.951 248.152 534.88 391.179Z" fill="#3CE5C8"/>
<path d="M543.045 391.179C543.045 391.179 536.493 279.197 624.952 243.553C624.952 243.553 569.685 283.876 570.46 391.179H543.045Z" fill="#3CE5C8"/>
<path d="M543.045 391.179H553.711C554.566 354.986 563.909 278.423 624.952 243.553C536.493 279.197 543.045 391.179 543.045 391.179Z" fill="#2DC9B2"/>
<path d="M521.083 391.179C521.083 391.179 504.431 284.457 441.5 289.685C441.5 289.685 528.829 243.57 543.044 391.179H521.083Z" fill="#3CE5C8"/>
<path d="M441.5 289.685C441.5 289.685 513.273 264.465 534.88 391.179H543.044C528.829 243.57 441.5 289.685 441.5 289.685Z" fill="#2DC9B2"/>
<path d="M551.516 391.179C551.516 391.179 557.26 336.414 609.299 327.33C661.354 318.229 668.212 364.523 668.212 364.523C668.212 364.523 607.185 316.503 583.772 391.179H551.516Z" fill="#2DC9B2"/>
<path d="M609.299 327.33C557.26 336.414 551.516 391.179 551.516 391.179H562.311C565.715 377.092 574.768 351.082 596.293 340.755C626.468 326.297 653.318 342.465 668.212 364.523C668.212 364.523 661.354 318.229 609.299 327.33Z" fill="#3CE5C8"/>
<path d="M581.465 481.781H524.682L513.419 381.901H592.744L581.465 481.781Z" fill="#F0C99E"/>
<path d="M448.347 456.319H562.93V459.772H448.347C443.329 459.772 439.247 463.531 439.247 468.146C439.247 472.761 443.329 476.52 448.347 476.52H562.93V479.973H448.347C441.425 479.973 435.777 474.665 435.777 468.146C435.777 461.627 441.425 456.319 448.347 456.319Z" fill="#1B4DED"/>
<path d="M448.347 459.772C443.328 459.772 439.246 463.531 439.246 468.146C439.246 472.761 443.328 476.52 448.347 476.52H558.234C558.234 476.52 550.391 469.453 558.234 459.772H448.347Z" fill="white"/>
<path d="M444.637 475.794H557.541C557.202 475.375 556.766 474.81 556.347 474.1H441.958C442.733 474.794 443.636 475.375 444.637 475.794Z" fill="#F7F3EB"/>
<path d="M439.861 471.179H555.105C554.975 470.647 554.863 470.082 554.798 469.485H439.36C439.457 470.066 439.635 470.631 439.861 471.179Z" fill="#F7F3EB"/>
<path d="M439.408 466.565H554.911C555.007 466.016 555.136 465.451 555.33 464.87H439.973C439.715 465.403 439.537 465.968 439.408 466.565Z" fill="#F7F3EB"/>
<path d="M442.248 461.95H556.701C557.024 461.401 557.411 460.837 557.847 460.256H445.314C444.168 460.627 443.119 461.208 442.248 461.95Z" fill="#F7F3EB"/>
<path d="M449.381 456.318H564.528V440.489H449.381V456.318Z" fill="#2DC9B2"/>
<path d="M454.011 456.318H456.883V440.489H454.011V456.318Z" fill="#5ADAC5"/>
<path d="M459.708 456.318H462.564V440.489H459.708V456.318Z" fill="#5ADAC5"/>
<path d="M551.344 456.318H554.2V440.489H551.344V456.318Z" fill="#5ADAC5"/>
<path d="M557.024 456.318H559.897V440.489H557.024V456.318Z" fill="#5ADAC5"/>
<path d="M489.172 451.058H523.332V445.766H489.172V451.058Z" fill="#5ADAC5"/>
<path d="M437.165 440.489H554.523V427.807H437.165V440.489Z" fill="#6785FF"/>
<path d="M527.044 437.633H548.311V430.679H527.044V437.633Z" fill="#1B4DED"/>
<path d="M441.103 440.489H444.927V427.807H441.103V440.489Z" fill="#1B4DED"/>
<path d="M538.678 427.807H454.479V424.338H538.678C543.712 424.338 547.795 420.578 547.795 415.979C547.795 411.364 543.712 407.605 538.678 407.605H454.479V404.136H538.678C545.616 404.136 551.248 409.444 551.248 415.979C551.248 422.498 545.616 427.807 538.678 427.807Z" fill="#F9A541"/>
<path d="M538.677 424.338C543.712 424.338 547.794 420.578 547.794 415.979C547.794 411.365 543.712 407.605 538.677 407.605H459.175C459.175 407.605 467.017 414.672 459.175 424.338H538.677Z" fill="white"/>
<path d="M461.047 410.025H545.083C544.309 409.315 543.405 408.751 542.389 408.331H459.853C460.191 408.734 460.627 409.299 461.047 410.025Z" fill="#F7F3EB"/>
<path d="M462.596 414.64H547.681C547.568 414.043 547.407 413.478 547.181 412.946H462.289C462.434 413.478 462.531 414.043 462.596 414.64Z" fill="#F7F3EB"/>
<path d="M462.062 419.255H547.068C547.31 418.706 547.503 418.141 547.632 417.561H462.498C462.401 418.109 462.256 418.674 462.062 419.255Z" fill="#F7F3EB"/>
<path d="M459.547 423.87H541.728C542.874 423.482 543.923 422.901 544.794 422.175H460.709C460.37 422.724 459.983 423.289 459.547 423.87Z" fill="#F7F3EB"/>
<path d="M330.719 252.154C333.333 253.912 335.947 255.671 338.561 257.43C339.061 257.769 339.884 257.769 340.385 257.43C342.966 255.687 345.564 253.929 348.146 252.186C354.423 259.867 360.684 267.563 366.945 275.244C348.598 275.244 330.251 275.244 311.888 275.244C318.165 267.547 324.442 259.85 330.719 252.154ZM309.904 238.1C315.842 242.101 321.796 246.119 327.734 250.137C321.796 257.414 315.842 264.707 309.904 272.001C309.904 260.689 309.904 249.394 309.904 238.1ZM347.92 248.007C347.759 248.071 347.614 248.168 347.485 248.297C344.806 250.088 342.143 251.896 339.465 253.703L339.158 253.493C338.077 252.767 336.996 252.041 335.915 251.298C332.317 248.878 328.702 246.442 325.088 244.005C321.392 241.504 317.697 239.003 313.986 236.502C330.977 236.502 347.952 236.502 364.944 236.502C359.264 240.342 353.584 244.167 347.92 248.007ZM369.026 272.114C363.072 264.788 357.102 257.478 351.131 250.169C357.102 246.151 363.072 242.117 369.026 238.1C369.026 249.427 369.026 260.77 369.026 272.114ZM372.641 234.695C372.641 234.114 372.35 233.598 371.915 233.259C371.527 232.92 371.027 232.742 370.462 232.888C349.808 232.888 329.138 232.888 308.467 232.888C307.919 232.742 307.402 232.92 307.031 233.259C306.579 233.598 306.289 234.114 306.289 234.695C306.289 248.814 306.289 262.932 306.289 277.051C306.289 277.793 306.773 278.455 307.435 278.713C307.806 278.939 308.225 279.003 308.645 278.858C329.154 278.858 349.679 278.858 370.204 278.858C370.543 278.971 370.882 278.955 371.205 278.81C371.56 278.745 371.85 278.584 372.06 278.374L372.108 278.326L372.157 278.277C372.447 277.987 372.641 277.584 372.641 277.051C372.641 262.932 372.641 248.814 372.641 234.695Z" fill="white"/>
<path d="M461.18 254.09C456.791 254.09 453.241 250.54 453.241 246.167C453.241 241.778 456.791 238.229 461.18 238.229C465.553 238.229 469.103 241.778 469.103 246.167C469.103 250.54 465.553 254.09 461.18 254.09ZM480.382 249.007V243.344H476.154C475.767 241.246 474.944 239.277 473.782 237.583L476.751 234.598L472.75 230.596L469.781 233.565C468.07 232.404 466.118 231.581 464.004 231.177V226.982H458.34V231.177C456.226 231.581 454.274 232.404 452.563 233.565L449.594 230.596L445.593 234.598L448.562 237.583C447.4 239.277 446.577 241.246 446.19 243.344H441.962V249.007H446.19C446.593 251.121 447.416 253.073 448.578 254.768L445.593 257.753L449.594 261.771L452.579 258.769C454.29 259.931 456.242 260.754 458.34 261.141V265.385H464.004V261.141C466.102 260.754 468.054 259.931 469.764 258.769L472.75 261.771L476.751 257.753L473.766 254.768C474.928 253.073 475.751 251.121 476.154 249.007H480.382Z" fill="white"/>
<path d="M147.43 108.143C142.073 108.143 137.732 103.802 137.732 98.4452C137.732 93.0881 142.073 88.7476 147.43 88.7476C152.787 88.7476 157.128 93.0881 157.128 98.4452C157.128 103.802 152.787 108.143 147.43 108.143ZM170.908 101.93V95.0083H165.745C165.261 92.4265 164.26 90.0385 162.84 87.957L166.471 84.3103L161.582 79.4212L157.951 83.0517C155.869 81.6318 153.465 80.6152 150.883 80.1311V75H143.977V80.1311C141.395 80.6152 138.991 81.6318 136.909 83.0517L133.279 79.4212L128.39 84.3103L132.02 87.957C130.6 90.0385 129.6 92.4265 129.116 95.0083H123.952V101.93H129.116C129.6 104.496 130.616 106.884 132.036 108.966L128.39 112.612L133.279 117.518L136.942 113.855C139.023 115.275 141.395 116.275 143.977 116.759V121.939H150.883V116.759C153.465 116.275 155.837 115.275 157.919 113.855L161.582 117.518L166.471 112.612L162.824 108.966C164.244 106.884 165.261 104.496 165.745 101.93H170.908Z" fill="white"/>
<path d="M413.174 197.212C413.174 199.551 411.27 201.601 408.85 201.601C406.365 201.601 404.525 199.551 404.525 197.212C404.525 194.791 406.429 192.807 408.85 192.807C411.189 192.807 413.174 194.791 413.174 197.212ZM415.078 174.864C411.932 177.72 411.851 180.35 411.851 185.11C411.851 186.288 411.125 187.385 408.769 187.385C406.8 187.385 405.913 186.578 405.913 184.013C405.913 176.687 407.897 173.831 409.882 171.992C412.738 169.361 417.708 166.425 417.708 160.422C417.708 155.727 414.497 153.016 409.285 153.016C402.331 153.016 402.621 157.566 399.829 157.566C398.522 157.566 396.828 156.534 396.828 154.565C396.828 151.483 401.588 147.078 409.511 147.078C418.822 147.078 424.163 152.58 424.163 159.68C424.163 167.829 417.498 172.363 415.078 174.864Z" fill="#71D8F2"/>
<path d="M303.212 144.462L288.077 127.746C287.238 128.762 286.576 129.892 286.157 131.134C283.155 129.924 276.733 126.858 271.279 120.856C265.825 114.789 263.05 107.624 261.985 104.333C263.243 104.042 264.405 103.477 265.486 102.751L250.334 86.0348C249.076 87.5516 248.221 89.3749 247.914 91.3757L247.866 91.6339L247.849 91.6823C247.801 92.1664 247.688 93.2313 247.64 94.7804C247.64 101.477 249.608 114.902 263.066 129.763C280.654 149.206 295.967 146.753 297.775 146.366C299.775 146.237 301.599 145.576 303.212 144.462ZM251.706 81.6136L251.319 81.9848L269.633 102.187L270.085 101.832L271.021 100.993C272.634 99.5081 273.587 97.4105 273.587 95.2322C273.587 93.2959 272.877 91.4403 271.553 89.9881L263.631 81.2587C260.758 78.0799 255.837 77.8379 252.674 80.71L251.706 81.6136ZM290.513 122.437C292.046 121.065 294.031 120.323 296.096 120.436C298.162 120.517 300.082 121.437 301.47 122.953L309.425 131.715C310.716 133.135 311.41 135.007 311.442 136.975C311.41 139.137 310.49 141.219 308.876 142.671L307.924 143.559L307.472 143.914L289.174 123.712L289.561 123.308L290.513 122.437Z" fill="#7ED1F7"/>
<path d="M237.743 248.555C239.695 254.025 244.375 254.977 244.31 259.705C244.02 281.617 217.67 305.611 208.52 305.611C200.259 305.611 179.685 295.978 169.164 277.955C165.518 271.694 161.322 263.497 161.225 256.72C157.853 241.811 160.306 223.319 165.647 211.734C172.924 195.985 223.559 193.145 225.576 196.437C229.965 203.65 240.405 222.19 241.745 229.628C242.245 232.5 239.082 241.407 237.743 248.555Z" fill="#FADBB9"/>
<path d="M214.829 239.874C213.91 270.516 236.306 262.481 224.463 270C222.704 271.081 219.638 271.952 216.62 271.565C222.365 270.419 225.899 265.901 225.737 266.886C226.738 267.676 210.65 262.206 214.829 239.874Z" fill="#F0C99C"/>
<path d="M214.039 205.054C218.057 204.166 227.351 200.729 228.739 202.698C232.224 207.7 236.645 216.542 237.549 218.495C238.453 220.447 239.389 207.7 232.047 193.71C224.092 178.543 217.476 180.253 214.039 180.673C210.602 181.092 175.828 178.995 170.374 180.673C164.888 182.367 145.234 205.683 145.234 212.202C145.234 215.671 146.864 230.032 150.479 244.538C153.641 257.269 156.626 245.344 159.644 243.586C164.097 240.988 177.345 216.833 182.977 203.876C185.93 197.131 211.054 205.715 214.039 205.054Z" fill="#222D6B"/>
<path d="M157.192 238.777C150.979 231.548 146.784 237.454 146.994 240.81C147.204 244.15 158.838 264.852 161.226 256.72C163.598 248.572 157.192 238.777 157.192 238.777Z" fill="#EFB671"/>
<path d="M199.564 186.352C169.067 179.85 168.744 185.755 154.367 212.379C169.584 192.258 171.165 183.012 199.564 186.352Z" fill="#3C89ED"/>
<path d="M198.612 190.435C175.909 188.208 175.263 190.677 161.741 209.249C173.537 196.26 176.473 189.967 198.612 190.435Z" fill="#3C89ED"/>
<path d="M204.663 186.062C225.091 181.705 225.301 185.675 234.951 203.521C224.769 190.015 223.688 183.835 204.663 186.062Z" fill="#3C89ED"/>
<path d="M205.292 189.757C219.314 188.047 222.057 188.176 229.996 201.423C222.09 192.71 220.121 189.45 205.292 189.757Z" fill="#3C89ED"/>
<path d="M219.057 251.428C227.641 258.592 233.74 257.382 237.532 254.074C240.243 251.702 241.195 242.617 237.371 241.262C229.674 238.551 223.833 244.651 219.057 251.428Z" fill="white"/>
<path fill-rule="evenodd" clip-rule="evenodd" d="M227.819 248.749C228.013 253.073 230.982 256.446 234.435 256.284C237.904 256.107 240.518 252.46 240.293 248.136C240.083 243.812 237.114 240.439 233.677 240.601C230.207 240.778 227.593 244.425 227.819 248.749Z" fill="#416CEB"/>
<path fill-rule="evenodd" clip-rule="evenodd" d="M231.45 252.186C234 251.653 233.144 247.539 230.595 248.071C228.029 248.604 228.901 252.718 231.45 252.186Z" fill="#F2EBE6"/>
<path fill-rule="evenodd" clip-rule="evenodd" d="M233.208 247.523C235.128 247.119 234.499 244.021 232.563 244.409C230.642 244.812 231.288 247.926 233.208 247.523Z" fill="#F2EBE6"/>
<path d="M246.101 238.116C245.907 242.488 241.195 244.909 239.453 244.134C232.014 240.859 226.979 242.488 219.057 251.428C220.719 243.311 231.013 236.873 239.437 241.31C240.921 241.246 244.536 240.342 246.101 238.116Z" fill="#071D49"/>
<path d="M180.023 251.653C188.656 259.786 195.191 258.898 199.419 255.639C202.436 253.299 204.018 243.731 200.064 242.069C192.077 238.697 185.494 244.78 180.023 251.653Z" fill="white"/>
<path fill-rule="evenodd" clip-rule="evenodd" d="M188.899 249.362C188.851 253.961 191.9 257.737 195.725 257.769C199.549 257.817 202.679 254.122 202.728 249.524C202.76 244.909 199.726 241.149 195.902 241.101C192.094 241.068 188.947 244.764 188.899 249.362Z" fill="#416CEB"/>
<path fill-rule="evenodd" clip-rule="evenodd" d="M193.094 253.251C195.837 252.848 195.192 248.426 192.465 248.83C189.705 249.233 190.351 253.654 193.094 253.251Z" fill="#F2EBE6"/>
<path fill-rule="evenodd" clip-rule="evenodd" d="M195.256 248.426C197.322 248.12 196.838 244.796 194.756 245.102C192.707 245.393 193.191 248.733 195.256 248.426Z" fill="#F2EBE6"/>
<path d="M209.52 239.294C209.004 243.908 203.873 246.167 202.081 245.248C194.417 241.294 188.995 242.698 180.023 251.653C182.783 242.44 194.853 237.406 202.243 242.246C203.808 242.279 207.713 241.553 209.52 239.294Z" fill="#071D49"/>
<path d="M223.156 231.903C223.156 231.903 223.398 231.71 223.817 231.403C223.995 231.242 224.253 231.032 224.527 230.838C224.802 230.661 225.076 230.467 225.415 230.241C226.076 229.806 226.916 229.354 227.851 228.934C228.319 228.757 228.803 228.531 229.304 228.386C229.82 228.208 230.353 228.079 230.885 227.966C232.999 227.482 235.242 227.547 236.888 227.853C237.711 227.982 238.356 228.176 238.84 228.321C239.276 228.483 239.55 228.579 239.55 228.579L240.292 226.917C240.292 226.917 240.002 226.788 239.502 226.546C238.985 226.337 238.259 226.046 237.356 225.804C235.548 225.272 232.983 224.949 230.449 225.272C229.82 225.336 229.175 225.449 228.561 225.578C227.932 225.707 227.351 225.901 226.786 226.062C225.641 226.45 224.608 226.885 223.753 227.337C223.301 227.579 222.898 227.789 222.543 227.982C222.204 228.192 221.962 228.354 221.752 228.499C221.3 228.773 221.042 228.934 221.042 228.934L223.156 231.903Z" fill="#3A66AE"/>
<path d="M205.534 227.853C205.534 227.853 205.163 227.676 204.534 227.353C204.211 227.192 203.824 226.998 203.388 226.772C202.92 226.563 202.307 226.337 201.694 226.095C201.387 225.982 201.049 225.853 200.726 225.723C200.371 225.643 200.016 225.546 199.661 225.449C199.306 225.352 198.919 225.256 198.564 225.159C198.16 225.062 197.789 225.013 197.369 224.949C196.966 224.884 196.579 224.82 196.159 224.755C195.74 224.739 195.32 224.707 194.885 224.675C194.045 224.594 193.19 224.642 192.335 224.658C191.48 224.675 190.641 224.804 189.786 224.884C188.979 225.046 188.156 225.143 187.397 225.368C186.623 225.546 185.881 225.772 185.203 225.998C184.509 226.208 183.864 226.482 183.299 226.708C182.121 227.192 181.185 227.676 180.54 228.047C179.894 228.402 179.507 228.709 179.507 228.709L180.556 230.193C180.556 230.193 180.814 230.016 181.427 229.725C182.024 229.435 182.928 229.047 184.025 228.676C184.59 228.499 185.187 228.305 185.832 228.144C186.478 227.982 187.155 227.821 187.881 227.708C188.591 227.563 189.334 227.531 190.092 227.434C190.834 227.402 191.609 227.337 192.367 227.385C193.126 227.418 193.884 227.434 194.642 227.563C194.997 227.611 195.369 227.66 195.74 227.708C196.079 227.789 196.434 227.869 196.772 227.95C197.111 228.047 197.466 228.112 197.789 228.208C198.112 228.321 198.418 228.418 198.725 228.531C199.032 228.628 199.322 228.725 199.612 228.822C199.887 228.951 200.129 229.064 200.387 229.176C200.871 229.419 201.307 229.596 201.726 229.806C202.146 230.064 202.517 230.29 202.807 230.467C203.437 230.838 203.776 231.032 203.776 231.032L205.534 227.853Z" fill="#3A66AE"/>
<path d="M138.184 244.828C138.184 250.944 141.653 255.881 145.961 255.881C150.237 255.881 153.723 250.944 153.723 244.828C153.723 238.713 150.237 233.775 145.961 233.775C141.653 233.775 138.184 238.713 138.184 244.828Z" fill="#FFB89F"/>
<path d="M245.409 242.375C245.409 242.375 228.821 221.915 219.607 203.053C219.607 203.053 167.955 233.711 151.529 234.695C151.529 234.695 146.591 229.289 141.783 233.065C141.783 233.065 138.184 169.716 188.706 163.472C245.296 156.469 258.543 208.555 245.409 242.375Z" fill="#222D6B"/>
<path d="M172.439 283.844L189.059 290.766L190.56 287.152L173.94 280.23C165.549 276.744 158.272 267.854 158.03 260.802L157.546 246.522L153.641 246.668L154.125 260.932C154.415 269.5 162.628 279.778 172.439 283.844Z" fill="#1B4DED"/>
<path d="M183.17 285.974C182.073 288.636 184.041 291.993 187.575 293.461C191.125 294.929 194.901 293.961 195.998 291.299C197.112 288.636 195.143 285.28 191.593 283.812C188.043 282.344 184.283 283.296 183.17 285.974Z" fill="#1B4DED"/>
<path d="M252.089 197.793C252.089 197.793 235.888 181.463 209.118 182.835C182.348 184.222 160.71 205.037 155.982 234.776L148.253 234.13C148.253 234.13 147.736 199.438 171.763 182.367C189.432 169.813 210.812 167.667 237.534 179.382C237.534 179.382 248.636 185.901 252.089 197.793Z" fill="#1B4DED"/>
<path d="M251.104 195.082C251.104 195.082 234.904 178.752 208.134 180.14C181.364 181.528 159.726 202.327 155.014 232.081L147.268 231.435C147.268 231.435 146.752 196.728 170.779 179.656C188.464 167.102 209.828 164.973 236.549 176.687C236.549 176.687 247.667 183.206 251.104 195.082Z" fill="#6785FF"/>
<path d="M134.569 244.812C133.617 256.204 140.232 266.063 149.333 266.805C158.434 267.563 166.583 258.947 167.519 247.555C168.471 236.147 161.855 226.304 152.754 225.546C143.653 224.804 135.521 233.42 134.569 244.812Z" fill="#1B4DED"/>
<path d="M129.825 244.425C128.872 255.816 135.488 265.659 144.589 266.418C153.69 267.176 161.822 258.543 162.774 247.152C163.726 235.76 157.111 225.917 148.01 225.159C138.909 224.4 130.76 233.033 129.825 244.425Z" fill="#6785FF"/>
<path fill-rule="evenodd" clip-rule="evenodd" d="M197.483 275.163C200.887 275.986 206.922 277.245 211.069 277.874C215.216 278.487 217.492 278.471 219.186 278.358C220.88 278.261 222.01 278.084 223.075 277.906C224.123 277.745 225.108 277.584 225.624 277.632C226.14 277.664 226.189 277.89 226.076 278.406C225.947 278.907 225.672 279.681 224.317 280.988C222.962 282.295 220.541 284.151 218.444 285.329C216.346 286.49 214.571 286.975 213.619 287.217C212.651 287.442 212.489 287.426 211.392 286.991C210.311 286.571 208.278 285.748 205.599 284.28C202.921 282.812 199.597 280.698 197.305 278.826C195.014 276.938 193.755 275.292 193.513 274.647C193.287 274.001 194.078 274.356 197.483 275.163Z" fill="#F0C99C"/>
<path d="M193.934 274.373C193.934 274.373 211.538 283.344 223.785 278.245C223.398 282.214 212.829 286.571 211.086 286.2C206.294 285.167 197.016 278.471 193.934 274.373Z" fill="#FFFEF0"/>
<path d="M462.061 0.000439046H306.376C303.227 -0.0189189 300.107 0.602045 297.205 1.8256C294.303 3.04916 291.681 4.84978 289.497 7.11805C287.312 9.38632 285.612 12.0749 284.499 15.0205C283.386 17.966 282.884 21.107 283.023 24.2527C283.353 30.1058 285.912 35.6104 290.173 39.6367C294.435 43.663 300.077 45.9054 305.94 45.9038H317.414L328.526 57L339.609 45.9038H461.625C464.772 45.9231 467.891 45.3025 470.792 44.0799C473.693 42.8573 476.315 41.058 478.499 38.7914C480.683 36.5247 482.383 33.838 483.497 30.8942C484.611 27.9504 485.115 24.811 484.978 21.6666C484.648 15.8121 482.09 10.3058 477.828 6.27711C473.567 2.24841 467.925 0.00265225 462.061 0.000439046Z" fill="#71D8F2"/>
<path d="M417.424 29.9995H314.672C314.12 30.0102 313.58 29.8552 313.127 29.5567C312.675 29.2582 312.333 28.8315 312.153 28.3379C312.013 27.965 311.968 27.566 312.023 27.1735C312.077 26.7811 312.229 26.4066 312.466 26.0807C312.703 25.7549 313.019 25.487 313.387 25.2992C313.754 25.1114 314.164 25.009 314.582 25.0004H417.334C417.895 24.9905 418.445 25.1523 418.901 25.4619C419.358 25.7715 419.697 26.2123 419.868 26.7189C419.997 27.0896 420.032 27.4837 419.971 27.8697C419.91 28.2557 419.755 28.6229 419.517 28.9417C419.28 29.2606 418.967 29.5224 418.603 29.7061C418.239 29.8897 417.836 29.9902 417.424 29.9995Z" fill="#FEFEFE"/>
<path d="M385.43 16H314.587C314.169 15.9915 313.758 15.8897 313.39 15.7029C313.021 15.5161 312.705 15.2497 312.467 14.9257C312.23 14.6016 312.077 14.2291 312.023 13.8389C311.968 13.4487 312.013 13.0518 312.153 12.681C312.329 12.1849 312.669 11.7544 313.123 11.4521C313.576 11.1499 314.121 10.9916 314.677 11.0004H385.295C386 10.9891 386.682 11.2417 387.189 11.7026C387.696 12.1634 387.988 12.7948 388 13.4578C388.012 14.1208 387.743 14.7611 387.253 15.2379C386.762 15.7146 386.091 15.9888 385.385 16H385.43Z" fill="#FEFEFE"/>
<rect y="480" width="644" height="10.3949" fill="#90EAFF"/>
</svg>
